<svg xmlns="http://www.w3.org/2000/svg" version="1.1" preserveAspectRatio="xMidYMid slice" width="100%" height="100%" viewBox="250 100 480 694">
  <g transform="">
    <path class="date-01-2013" stroke-linejoin="round" stroke-linecap="round" fill="none" d="M619 583L623 585L629 580L631 580L633 576L612 562L607 561L601 569L605 567L604 569L610 577L610 579L613 578L617 583"></path>
    <path class="date-01-2013" stroke-linejoin="round" stroke-linecap="round" fill="none" d="M620 583L621 584L632 576L627 571L614 564L608 558L608 556L596 550L595 551L597 553L596 552L598 559L594 564L588 566L589 573L593 575L599 568L604 567L606 561L610 561L613 564L615 564L615 566L621 568L618 571L619 574L617 576L619 581"></path>
    <path class="date-01-2013" stroke-linejoin="round" stroke-linecap="round" fill="none" d="M568 777L571 782L569 784L563 782L563 784L559 784L556 786L555 785L556 786L551 789L554 794L558 792L556 786L564 784L561 780L567 776L568 777"></path>
    <path class="date-01-2013" stroke-linejoin="round" stroke-linecap="round" fill="none" d="M620 583L623 581L625 583L636 577L622 568L616 566L612 562L607 561L602 568L605 567L604 569L606 573L611 579L612 578L617 583"></path>
    <path class="date-01-2013" stroke-linejoin="round" stroke-linecap="round" fill="none" d="M620 584L621 583L621 585L623 585L629 580L631 580L632 575L630 575L630 573L622 568L614 565L610 561L606 561L602 568L593 573L593 577L596 578L605 571L609 578L610 579L612 577L617 583"></path>
    <path class="date-01-2013" stroke-linejoin="round" stroke-linecap="round" fill="none" d="M617 583L614 580L614 578L605 578L603 573L600 576L594 578L589 572L588 565L577 564L573 567L568 568L565 573L560 575L549 572L542 573L542 571L546 569L548 573L560 575L563 574L566 571L566 569L574 567L574 565L578 564L587 565L588 570L592 575L599 568L602 569L604 567L606 571L608 570L612 574L617 583"></path>
    <path class="date-01-2013" stroke-linejoin="round" stroke-linecap="round" fill="none" d="M624 581L632 575L630 575L630 573L628 573L624 569L616 566L612 562L607 561L601 569L605 567L604 570L608 574L611 573L613 576L616 575L619 581"></path>
    <path class="date-01-2013" stroke-linejoin="round" stroke-linecap="round" fill="none" d="M624 581L632 575L630 575L630 573L622 568L614 565L610 561L606 561L601 569L605 567L605 571L609 576L611 578L612 577L618 583"></path>
    <path class="date-01-2013" stroke-linejoin="round" stroke-linecap="round" fill="none" d="M624 581L632 576L630 574L636 577L631 592L633 590L633 586L637 578L631 572L630 573L625 571L609 561L607 561L602 568L593 573L593 577L596 578L605 571L610 578L614 578L615 581L618 583"></path>
    <path class="date-01-2013" stroke-linejoin="round" stroke-linecap="round" fill="none" d="M620 583L625 581L626 578L630 575L630 573L614 564L610 568L608 568L616 574L619 581"></path>
    <path class="date-01-2013" stroke-linejoin="round" stroke-linecap="round" fill="none" d="M621 585L635 577L636 578L631 589L632 592L637 577L628 572L624 568L622 568L613 559L613 557L604 555L595 550L593 554L593 560L588 565L589 572L594 577L593 578L603 573L605 577L608 576L610 578L614 578L617 583"></path>
    <path class="date-01-2013" stroke-linejoin="round" stroke-linecap="round" fill="none" d="M624 583L636 577L631 591L634 596L634 607L638 615L634 622L628 623L621 628L611 628L603 621L598 623L606 633L605 636L607 640L608 649L609 646L607 634L612 629L620 629L624 625L636 623L639 617L638 609L635 603L635 595L633 591L631 591L633 583L624 583L622 585L620 582"></path>
    <path class="date-01-2013" stroke-linejoin="round" stroke-linecap="round" fill="none" d="M624 581L632 576L622 568L613 565L609 569L609 571L613 576L615 574L619 581"></path>
    <path class="date-02-2013" stroke-linejoin="round" stroke-linecap="round" fill="none" d="M623 582L632 575L630 575L628 572L609 561L614 564L612 562L607 561L601 569L604 568L605 567L601 569L600 568L593 574L594 579L594 577L596 578L599 573L606 572L607 575L612 575L612 577L617 583"></path>
    <path class="date-02-2013" stroke-linejoin="round" stroke-linecap="round" fill="none" d="M624 581L632 576L630 574L632 574L636 578L633 583L631 591L634 596L634 607L638 615L633 623L627 623L620 628L612 628L613 629L620 629L626 624L635 623L639 618L639 612L634 602L634 596L631 595L627 587"></path>
    <path class="date-02-2013" stroke-linejoin="round" stroke-linecap="round" fill="none" d="M618 585L620 588L623 585L625 585L625 583L629 580L632 581L636 578L632 574L616 566L610 561L606 561L604 567L599 568L593 576L593 580L611 568L618 578"></path>
    <path class="date-02-2013" stroke-linejoin="round" stroke-linecap="round" fill="none" d="M191 345L193 341L197 343L196 344L192 342L191 345L189 345"></path>
    <path class="date-02-2013" stroke-linejoin="round" stroke-linecap="round" fill="none" d="M621 583L631 577L632 576L630 574L636 577L631 591L634 596L634 607L638 614L636 620L633 623L627 623L621 628L613 628L621 628L627 623L633 623L638 615L634 607L635 604L632 593L633 583L636 578L632 574L630 574L630 576L622 580L620 582L621 583"></path>
    <path class="date-02-2013" stroke-linejoin="round" stroke-linecap="round" fill="none" d="M617 584L609 570L605 570L604 567L599 568L593 576L593 580L593 576L596 572L600 568L601 569L605 567L601 568L604 567L606 561L610 561L616 566L618 566L620 568L618 572L619 574"></path>
    <path class="date-02-2013" stroke-linejoin="round" stroke-linecap="round" fill="none" d="M624 581L627 580L631 576L631 574L636 577L631 589L632 594L634 596L634 607L638 615L634 622L628 623L633 624L636 623L639 618L639 612L635 602L635 596L632 590L637 577L622 568"></path>
    <path class="date-02-2013" stroke-linejoin="round" stroke-linecap="round" fill="none" d="M624 581L631 576L630 573L618 566L617 567L610 561L606 561L603 567L596 571L592 577L595 583L603 580L608 588L612 588L620 584L620 582"></path>
    <path class="date-02-2013" stroke-linejoin="round" stroke-linecap="round" fill="none" d="M582 582L580 582L581 585L579 589L575 592L565 594L553 592L548 597L553 592L559 592L561 594L575 592L579 589L581 582L584 581L585 582L576 592L565 594L553 592L548 597L553 592L559 592L561 594L575 592L581 586L581 582L585 582"></path>
    <path class="date-02-2013" stroke-linejoin="round" stroke-linecap="round" fill="none" d="M587 582L589 578L596 578L598 576L600 576L603 581L611 577L614 578L616 582"></path>
    <path class="date-02-2013" stroke-linejoin="round" stroke-linecap="round" fill="none" d="M624 581L631 576L630 573L616 566L608 558L608 556L608 558L614 564L612 562L607 561L601 569L605 567L600 568L594 574L593 578L591 578L592 579L592 577L596 578L600 576L603 581L605 579L608 582L612 580"></path>
    <path class="date-02-2013" stroke-linejoin="round" stroke-linecap="round" fill="none" d="M626 580L632 576L627 571L615 565L608 558L608 556L598 551L594 551L593 560L588 565L589 572L592 575L599 568L602 569L604 567L606 571L601 577L602 580L603 581L612 576L620 588L622 585"></path>
    <path class="date-02-2013" stroke-linejoin="round" stroke-linecap="round" fill="none" d="M624 582L632 576L622 568L615 565L608 558L608 556L594 550L592 562L588 565L589 572L594 577L598 577L606 571L612 569L615 575"></path>
    <path class="date-02-2013" stroke-linejoin="round" stroke-linecap="round" fill="none" d="M628 579L632 575L631 574L636 577L634 584L632 586L632 594L634 596L635 601L634 607L637 611L638 616L634 622L625 624L621 628L611 628L605 622L602 621L598 623L602 630L606 633L605 636L607 640L608 649L609 646L607 634L612 629L620 629L626 624L635 623L639 618L639 612L635 603L635 595L632 592L633 586L636 581L634 581L636 577L631 574L630 575L632 576L630 578L620 584L619 583"></path>
    <path class="date-02-2013" stroke-linejoin="round" stroke-linecap="round" fill="none" d="M619 585L616 583L615 580L613 580L613 578L610 579L610 577L607 579L604 576L594 578L592 576L593 573L602 568L607 561L611 561L620 568L618 572L621 577L619 579L620 582"></path>
    <path class="date-02-2013" stroke-linejoin="round" stroke-linecap="round" fill="none" d="M624 581L626 581L632 576L627 571L616 566L610 560L607 561L602 568L595 571L592 575L589 572L588 565L592 561L595 550L604 555L611 556L615 560L616 563L603 572L605 578L606 579L608 577L614 585"></path>
    <path class="date-03-2013" stroke-linejoin="round" stroke-linecap="round" fill="none" d="M624 581L629 578L631 574L636 577L631 589L632 594L634 596L634 608L638 614L636 621L625 624L621 628L611 628L605 622L602 621L600 621L598 623L599 624L599 622L602 621L605 622L611 628L621 628L625 624L636 621L638 615L634 608L634 596L632 594L631 589L636 578L632 574L630 574L632 576L630 578L624 581L623 580"></path>
    <path class="date-03-2013" stroke-linejoin="round" stroke-linecap="round" fill="none" d="M624 581L632 576L627 571L616 566L608 558L608 556L596 550L596 554L597 553L597 551L597 553L595 551L593 553L593 559L588 565L589 572L592 575L594 573L593 578L591 578L593 580L599 576L602 579L607 579L609 577L611 581L613 580"></path>
    <path class="date-03-2013" stroke-linejoin="round" stroke-linecap="round" fill="none" d="M624 582L632 576L630 574L631 573L637 577L632 590L635 595L635 603L639 612L639 618L636 621L636 623L627 624L622 628L615 629L614 628L620 628L625 624L632 623L636 620L638 615L634 607L634 597L631 590L636 577L631 574L624 579"></path>
    <path class="date-03-2013" stroke-linejoin="round" stroke-linecap="round" fill="none" d="M617 584L613 577L610 579L610 577L606 579L607 578L604 575L604 573L596 578L594 578L590 574L588 566L594 564L598 560L597 552L597 554L595 551L596 550L608 556L608 558L617 567L620 568L618 572L619 575"></path>
    <path class="date-03-2013" stroke-linejoin="round" stroke-linecap="round" fill="none" d="M622 584L623 585L626 582L628 582L633 577L630 574L631 573L637 577L632 590L635 595L635 601L638 611L640 613L639 619L634 624L626 624L620 629L612 629L607 634L609 646L608 649L607 640L605 636L606 634L598 624L601 621L603 621L611 628L621 628L625 624L635 622L638 615L634 607L634 597L631 591L636 578L632 574L609 561L607 561L602 568L605 567L605 571"></path>
    <path class="date-03-2013" stroke-linejoin="round" stroke-linecap="round" fill="none" d="M617 583L613 577L609 577L607 579L603 575L597 577L594 580L592 578L591 579L593 575L590 574L588 569L588 565L592 561L592 559L597 556L597 552L596 553L595 550L606 555L614 563L613 564L610 561L606 561L602 568L604 568L608 562L614 564L610 561L614 564"></path>
    <path class="date-03-2013" stroke-linejoin="round" stroke-linecap="round" fill="none" d="M624 582L632 576L630 574L631 573L637 577L632 590L635 596L635 602L639 612L639 618L635 623L626 624L622 628L614 629L614 627L621 628L625 624L632 623L636 620L638 614L634 608L634 597L631 592L631 588L636 577L630 574L631 575L629 577L623 580"></path>
    <path class="date-03-2013" stroke-linejoin="round" stroke-linecap="round" fill="none" d="M616 582L614 578L605 579L604 578L606 575L603 574L596 578L594 578L590 574L588 565L593 559L594 550L608 556L608 558L617 567L624 569L628 573L631 572L637 578L632 591L635 595L635 601L639 612L639 618L635 623L627 624L619 629L612 629L607 634L609 648L606 653L605 668L608 676L605 668L605 656L608 651L605 635L606 634L602 627L598 624L601 621L603 621L611 628L621 628L627 623L634 622L638 614L634 607L634 597L631 589L636 578L632 574L630 574L632 576L624 581"></path>
    <path class="date-03-2013" stroke-linejoin="round" stroke-linecap="round" fill="none" d="M624 582L632 576L622 568L616 566L608 558L608 556L595 550L592 562L588 566L589 572L592 575L599 568L604 567L606 561L610 561L614 565L609 562L607 562L606 565L613 570L616 576"></path>
    <path class="date-03-2013" stroke-linejoin="round" stroke-linecap="round" fill="none" d="M624 581L632 576L627 571L610 562L606 563L608 569L594 577L589 573L588 566L589 573L593 576L593 578L598 577L611 568L618 578"></path>
    <path class="date-03-2013" stroke-linejoin="round" stroke-linecap="round" fill="none" d="M616 582L612 578L607 579L604 576L604 574L596 578L593 577L591 579L593 579L595 572L599 568L605 568L605 562L609 561L614 564L608 558L608 556L609 557L596 550L595 551L597 555L596 557L594 557L594 551L595 550L604 555L609 556L608 557L614 563L614 565L617 566L615 566L615 568L619 573"></path>
    <path class="date-03-2013" stroke-linejoin="round" stroke-linecap="round" fill="none" d="M624 581L631 576L631 572L637 577L632 590L635 595L635 603L639 612L639 618L634 624L626 624L622 628L615 629L614 628L620 628L625 624L635 622L638 614L633 606L632 607L628 603L624 605L622 603L619 594L622 591L621 590L623 586L618 585L620 583"></path>
    <path class="date-03-2013" stroke-linejoin="round" stroke-linecap="round" fill="none" d="M613 580L613 578L606 579L603 574L599 577L594 578L589 573L587 565L575 565L566 570L565 569L566 566L578 564L588 566L593 560L593 558L597 556L597 552L596 553L595 551L596 550L606 555L615 564L615 566L616 565L637 577L632 590L635 595L635 601L639 612L639 618L633 624L627 624L624 625L622 628L615 629L610 628L605 622L600 621L598 623L602 621L605 622L611 628L621 628L626 623L635 622L638 615L634 607L634 597L632 594L632 586L634 583L633 580L623 586L620 584"></path>
    <path class="date-03-2013" stroke-linejoin="round" stroke-linecap="round" fill="none" d="M616 582L612 577L607 579L603 575L599 575L596 578L594 578L592 575L599 568L605 565L607 561L609 561L613 564L607 562L607 566L609 568L605 570L606 571L611 568L620 581L620 584"></path>
    <path class="date-04-2013" stroke-linejoin="round" stroke-linecap="round" fill="none" d="M624 581L631 576L630 573L613 564L610 561L613 564L610 561L613 564L610 561L613 564L614 563L607 556L595 550L595 552L597 552L597 556L594 557L587 566L589 572L593 576L593 578L599 576L601 576L602 579L612 577L616 582"></path>
    <path class="date-04-2013" stroke-linejoin="round" stroke-linecap="round" fill="none" d="M625 581L632 575L630 575L631 574L636 578L631 589L632 594L634 596L634 608L638 614L636 620L634 622L624 624L621 628L611 628L605 622L602 621L598 623L600 621L606 623L607 622L611 626L611 628L614 627L614 629L620 629L624 625L636 623L638 620L639 613L635 603L634 593L631 592L631 588L636 578L632 574L630 574L629 577L622 580"></path>
    <path class="date-04-2013" stroke-linejoin="round" stroke-linecap="round" fill="none" d="M616 582L612 578L606 579L604 575L593 578L593 576L589 572L588 565L576 565L574 567L566 569L566 571L560 575L548 573L547 570L542 567L545 568L547 572L552 575L551 578L550 577L541 579L538 576L532 576L529 577L514 590L517 591L525 599L525 596L528 597L526 599L529 606L533 606L536 602L541 600L543 594L552 593L556 589L558 589L558 591L563 594L575 591L579 588L580 580L585 577L579 569L579 565L588 566L591 563L593 557L597 555L595 551L596 550L608 556L608 558L614 564L611 561L607 561L602 568L600 568L597 571L596 570L593 573L593 577L596 578L600 576L601 573L609 570L612 577L614 578"></path>
    <path class="date-04-2013" stroke-linejoin="round" stroke-linecap="round" fill="none" d="M546 764L550 761L554 763L560 763L565 760L564 763L567 774L563 774L562 777L565 778L567 776L574 780L570 784L563 783L563 785L557 789L560 794L559 795L560 794L558 794L558 790L554 784L555 783L551 782L549 784L550 781L549 782L547 780L546 773L549 766L546 764"></path>
    <path class="date-04-2013" stroke-linejoin="round" stroke-linecap="round" fill="none" d="M396 439L389 442L391 449L386 457L385 454L382 457L380 455L380 451L375 448L377 442L381 444L387 442L389 445L390 442L391 443L394 441"></path>
    <path class="date-04-2013" stroke-linejoin="round" stroke-linecap="round" fill="none" d="M616 582L612 578L610 579L610 577L606 579L606 577L605 578L603 574L595 578L589 572L588 565L574 565L574 567L566 569L566 571L563 574L551 574L552 577L552 573L558 575L563 574L566 571L566 569L574 567L574 565L588 565L589 572L593 576L593 578L598 577L602 574L605 575L611 573L617 583"></path>
    <path class="date-04-2013" stroke-linejoin="round" stroke-linecap="round" fill="none" d="M616 582L612 578L610 579L608 577L606 579L605 572L597 578L593 578L593 576L590 575L588 567L586 565L579 564L575 564L574 567L566 569L566 571L563 574L556 574L561 575L566 571L566 569L574 567L574 565L577 564L588 565L589 572L593 576L593 578L603 574L606 577L612 577L617 583"></path>
    <path class="date-04-2013" stroke-linejoin="round" stroke-linecap="round" fill="none" d="M616 582L613 578L603 579L600 576L594 578L589 572L588 565L574 565L566 569L566 571L560 575L555 573L547 573L547 569L545 569L542 566L542 558L536 551L535 545L532 542L532 540L525 535L519 535L517 533L520 528L520 524L508 511L504 511L499 508L508 511L520 523L520 527L517 533L520 536L520 534L525 535L525 537L530 538L532 540L537 553L542 558L542 566L545 569L547 569L547 573L549 572L552 575L551 578L547 578L551 578L552 573L558 575L563 574L566 571L566 569L574 567L574 565L579 564L589 566L593 564L598 560L597 556L593 551L594 550L608 556L608 558L614 564L612 562L607 561L602 568L600 568L592 575L593 578L601 578L602 576"></path>
    <path class="date-04-2013" stroke-linejoin="round" stroke-linecap="round" fill="none" d="M384 370L388 372L387 387L380 394L378 394L377 397L385 399L386 404L386 400L390 398L389 391L391 391L388 390L395 371L391 365L389 365L389 367L387 367L385 370"></path>
    <path class="date-04-2013" stroke-linejoin="round" stroke-linecap="round" fill="none" d="M624 581L632 575L619 566L614 565L615 564L607 556L596 550L595 551L597 553L598 559L594 564L590 564L588 566L589 573L593 575L593 573L602 568L607 561L611 561L614 564L610 562L606 563L609 568L608 569L609 570L612 568L620 582"></path>
    <path class="date-04-2013" stroke-linejoin="round" stroke-linecap="round" fill="none" d="M518 531L519 528L520 529L518 531L520 528L520 524L509 512L500 509L498 505L484 505L480 498L476 496L475 489L477 485L477 479L473 475L466 476L458 480L455 477L445 479L435 472L425 472L420 465L421 462L418 455L420 449L420 439L416 434L420 440L419 459L421 467L414 470L401 467L397 462L396 457L400 467L411 470L420 467L425 472L437 472L444 479L448 479L450 477L462 479L465 476L475 476L477 480L475 492L481 499L481 501L485 505L496 504L501 509L510 512L513 515L513 517L521 524L520 529L517 532L518 533L512 538L517 536L518 534L516 534L511 527L516 526L515 529L517 531L519 529L518 531"></path>
    <path class="date-04-2013" stroke-linejoin="round" stroke-linecap="round" fill="none" d="M401 427L398 415L400 413L401 408L406 405L406 401L409 398L410 393L408 393L407 390L403 392L404 393L409 388L410 383L414 385L413 388L410 391L410 395L406 405L401 408L400 413L398 415L398 419L401 426"></path>
    <path class="date-04-2013" stroke-linejoin="round" stroke-linecap="round" fill="none" d="M625 583L632 578L636 578L632 585L631 592L634 596L634 608L638 614L634 622L627 623L621 628L611 628L605 622L602 621L598 623L602 630L606 633L606 650L609 647L607 634L612 629L622 628L626 624L635 623L639 618L639 612L635 602L635 596L632 591L637 577L632 573L626 571L630 575L623 580"></path>
    <path class="date-04-2013" stroke-linejoin="round" stroke-linecap="round" fill="none" d="M546 763L550 761L558 763L564 759L564 763L567 767L566 770L568 776L573 777L573 779L569 779L569 781L566 784L558 782L560 780L562 780L562 782L570 782L574 780L571 783L566 783L567 786L575 782L573 788L562 797L555 787L555 779L550 773L546 773L547 770"></path>
    <path class="date-04-2013" stroke-linejoin="round" stroke-linecap="round" fill="none" d="M519 530L520 524L510 512L502 510L497 505L485 505L482 502L481 498L475 494L477 486L477 480L475 476L465 476L461 480L455 477L445 479L438 473L425 472L421 468L421 462L419 458L420 439L416 434L414 428L417 423L415 413L422 404L429 403L433 397L438 398L438 396L437 399L433 397L428 404L423 404L413 411L406 410L407 409L411 411L413 411L416 408L417 409L415 413L415 417L417 419L415 431L420 440L419 459L421 462L421 466L415 470L400 467L395 455L399 465L403 468L412 470L420 467L425 472L437 472L444 479L454 477L460 480L466 476L474 476L477 479L475 493L481 499L481 501L485 505L496 504L502 510L510 512L515 520"></path>
    <path class="date-04-2013" stroke-linejoin="round" stroke-linecap="round" fill="none" d="M338 258L338 254L330 249L330 243L328 240L325 237L321 237L312 229L313 210L309 208L307 211L303 211L300 208L292 208L289 205L303 217L305 225L310 231L310 233L316 233L319 236L323 236L329 240L330 249L333 252L335 252L338 255L338 257"></path>
    <path class="date-05-2013" stroke-linejoin="round" stroke-linecap="round" fill="none" d="M624 581L632 575L629 572L627 572L628 571L617 566L608 558L608 556L595 550L598 556L598 560L594 564L590 564L588 566L588 570L590 573L592 575L599 568L604 567L606 561L610 561L614 565L609 562L607 562L606 565L613 570L618 580"></path>
    <path class="date-05-2013" stroke-linejoin="round" stroke-linecap="round" fill="none" d="M337 258L335 262L330 265L318 265L310 269L301 270L293 266L288 268L281 267L276 268L275 271L275 269L271 267L266 260L270 254L271 243L274 240L278 240L279 238L283 238L286 240L290 238L301 239L309 233L316 233L319 236L327 238L329 240L331 249L338 254L338 258"></path>
    <path class="date-05-2013" stroke-linejoin="round" stroke-linecap="round" fill="none" d="M530 529L518 534L518 530L521 527L521 525L516 519L517 518L514 517L512 513L508 512L497 499L491 496L487 489L483 489L484 488L480 484L481 479L478 476L476 476L474 472L472 472L473 467L471 467L470 460L463 461L462 458L459 459L456 456L455 457L452 455L445 464L441 464L439 466L438 465L439 470L441 470L444 473L446 473L449 470L451 472L452 469L453 472L459 477L449 477L445 473L442 476L435 472L425 472L421 468L421 462L419 458L420 439L415 432L415 424L417 422L415 414L417 410L416 409L420 404L422 402L428 402L430 398L430 394L427 391L427 387L429 385L429 379L427 377L429 379L427 391L430 394L430 400L428 402L422 402L419 405L418 410L416 410L416 408L415 409L416 408L417 410L415 413L415 417L417 419L415 431L420 439L419 458L421 462L421 469L424 472L436 472L443 479L455 477L458 480L460 480L464 476L473 475L477 479L475 493L481 499L481 501L485 505L494 504L502 510L509 512L520 524L520 528L517 533L522 533"></path>
    <path class="date-05-2013" stroke-linejoin="round" stroke-linecap="round" fill="none" d="M368 352L368 344L365 341L365 339L359 335L360 332L371 320L375 320L364 308L363 303L360 300L360 291L362 289L362 291L365 294L365 298L368 297L371 300L384 318L378 321L371 321L360 332L359 335L362 336L365 339L365 341L368 342L369 351"></path>
    <path class="date-05-2013" stroke-linejoin="round" stroke-linecap="round" fill="none" d="M625 581L633 575L636 578L631 589L632 592L637 577L631 573L630 574L621 567L616 566L608 558L608 556L596 550L595 551L596 554L597 553L596 552L598 559L594 564L590 564L588 566L589 573L593 575L595 571L602 568L605 565L605 563L609 561L616 566L621 567L632 576L625 581"></path>
    <path class="date-05-2013" stroke-linejoin="round" stroke-linecap="round" fill="none" d="M616 582L616 580L609 575L609 571L607 573L604 572L598 577L593 578L593 576L589 572L588 565L577 564L573 567L568 568L566 572L561 575L549 572L548 573L547 570L542 567L541 556L536 551L534 543L531 539L525 535L520 536L518 534L520 536L525 535L525 537L527 537L534 543L536 551L541 556L542 567L545 568L548 573L560 575L563 574L566 571L566 569L574 567L574 565L593 564L599 558L597 556L597 552L596 553L595 551L596 550L608 556L610 560L607 561L602 568L600 568L593 574L593 578L599 576L608 576L612 578"></path>
    <path class="date-05-2013" stroke-linejoin="round" stroke-linecap="round" fill="none" d="M317 330L317 338L314 343L314 349L311 350L306 355L299 354L296 357L297 364L300 363L305 356L303 354L299 354L296 357L297 364L299 364L305 356L303 354L299 354L296 357L297 364L296 355L291 354L289 352L289 348L292 344L296 342L313 341L317 337L317 331"></path>
    <path class="date-05-2013" stroke-linejoin="round" stroke-linecap="round" fill="none" d="M616 582L608 576L603 580L599 576L593 578L593 576L589 572L588 565L574 565L574 567L566 569L566 571L563 574L558 575L552 573L551 578L548 577L540 579L537 576L541 580L547 579L549 577L550 578L552 576L551 573L558 575L563 574L572 592L579 588L579 580L582 578L595 578L607 573L608 570L611 574"></path>
    <path class="date-05-2013" stroke-linejoin="round" stroke-linecap="round" fill="none" d="M444 397L445 402L441 408L444 433L443 434L438 427L429 422L429 430L424 435L420 451L433 451L437 448L442 435"></path>
    <path class="date-05-2013" stroke-linejoin="round" stroke-linecap="round" fill="none" d="M619 584L616 583L619 580L613 580L612 577L610 579L605 578L603 580L599 576L596 578L593 577L593 573L600 568L601 569L605 567L605 572L612 569L613 573"></path>
    <path class="date-05-2013" stroke-linejoin="round" stroke-linecap="round" fill="none" d="M619 574L615 567L616 564L637 576L637 580L631 593L634 597L634 607L637 613L637 617L634 622L624 624L620 628L612 628L601 620L598 623L596 621L589 625L580 622L579 617L573 607L565 615L561 617L549 620L535 629L532 626L534 622L551 612L547 602L557 598L558 595L554 593L545 601L538 602L532 608L532 610L532 608L537 602L545 600L553 592L559 592L561 594L576 592L579 589L579 587L586 581L579 569L578 564L559 567L548 556L560 556L561 551L569 554L573 562L584 561L584 559L592 559L593 552L595 550L604 555L611 556L612 553L609 549L610 541L617 526L623 522L624 515L628 513L628 509L626 507L627 503L632 498L635 497L641 499L650 498L657 495L662 496L664 499L662 505L662 513L656 515L653 518L651 526L645 532L643 532L641 536L635 534L630 535L617 529L613 535L609 545L609 549L614 558L620 567L630 571L637 577L632 592L631 589L635 578L633 575L627 572"></path>
    <path class="date-05-2013" stroke-linejoin="round" stroke-linecap="round" fill="none" d="M503 490L502 487L500 491L496 491L493 488L492 483L487 480L480 484L484 488L483 489L489 489L497 492L498 491L496 491L490 483L485 482L481 484L481 486L484 489L483 490L488 489L496 493L503 492L504 491L502 491L501 488L500 491L496 491L494 489L493 492L501 498L502 505L501 502L491 495L487 490L488 489L496 493L504 491L502 491L501 489"></path>
    <path class="date-06-2013" stroke-linejoin="round" stroke-linecap="round" fill="none" d="M616 582L613 577L611 579L608 578L606 580L603 572L596 578L594 578L590 574L588 569L589 565L596 562L599 558L597 556L597 552L596 553L595 551L596 550L608 556L608 558L615 565L613 571L619 580"></path>
    <path class="date-06-2013" stroke-linejoin="round" stroke-linecap="round" fill="none" d="M369 352L368 343L362 336L359 335L364 329L364 327L366 327L366 325L371 320L378 321L381 318L385 319L387 317L387 313L389 313L391 309L395 309L397 311L400 310L391 309L390 312L386 314L387 317L385 319L382 318L379 321L371 321L364 328L364 330L360 332L359 339L361 336L364 337L364 339L368 343L368 352"></path>
    <path class="date-06-2013" stroke-linejoin="round" stroke-linecap="round" fill="none" d="M415 409L413 411L405 410L405 412L398 415L394 408L384 409L380 411L375 410L370 408L367 403L361 403L357 401L353 402L353 398L351 398L348 395L347 396L352 397L354 401L367 403L370 408L374 408L379 411L383 409L394 408L396 410L397 415L402 414L406 410L414 410"></path>
    <path class="date-06-2013" stroke-linejoin="round" stroke-linecap="round" fill="none" d="M440 395L437 394L437 398L433 400L435 397L433 397L430 400L430 402L419 405L414 410L407 409L390 422L379 425L368 433L367 432L367 428L370 427L371 424L366 423L368 423L368 421L373 417L376 418L380 416L380 418L383 413L389 413L391 411L393 411L397 415L402 414L406 410L413 411L418 406L429 403L432 397L437 399L440 394L442 396"></path>
    <path class="date-06-2013" stroke-linejoin="round" stroke-linecap="round" fill="none" d="M317 331L314 323L309 322L309 320L303 318L295 324L289 322L281 322L278 325L277 324L270 329L257 334L245 344L250 345L252 349L263 350L266 347L268 347L278 337L279 334L284 333L286 335L292 326L303 318L312 322L316 326L316 330"></path>
    <path class="date-06-2013" stroke-linejoin="round" stroke-linecap="round" fill="none" d="M616 582L612 578L602 579L599 576L597 578L593 578L593 576L589 572L588 567L598 560L597 552L596 553L595 551L596 550L606 555L611 560L611 562L614 565L608 562L606 564L612 568L612 570L619 580"></path>
    <path class="date-06-2013" stroke-linejoin="round" stroke-linecap="round" fill="none" d="M391 108L393 110L396 120L396 126L394 127L392 127L391 124L395 120L389 106L393 120L390 123L391 118L389 116L390 115L389 116L388 107L388 117L386 119L388 113L387 108L385 106L388 105"></path>
    <path class="date-06-2013" stroke-linejoin="round" stroke-linecap="round" fill="none" d="M389 389L387 385L386 376L389 373L389 369L393 367L399 377L399 379L397 379L396 382L397 387L390 392L394 390L394 388L390 388L386 396L384 392L382 392L382 390L386 396L385 391L386 392L387 390"></path>
    <path class="date-06-2013" stroke-linejoin="round" stroke-linecap="round" fill="none" d="M389 388L388 391L390 399L388 401L377 396L380 393L382 393L382 387L383 392L382 391L386 389L387 378L389 376L388 373L391 366L394 367L395 372L399 376L399 378L397 380L397 388L389 391"></path>
    <path class="date-06-2013" stroke-linejoin="round" stroke-linecap="round" fill="none" d="M614 580L605 579L603 581L599 576L597 578L593 578L593 576L589 572L588 565L579 564L568 568L566 572L561 575L548 573L547 570L542 567L541 556L536 551L532 540L524 535L518 535L524 535L533 542L535 549L541 556L542 567L545 568L548 573L549 572L558 575L563 574L572 592L579 588L579 580L582 578L590 576L591 578L593 578L602 575L604 575L606 579L610 577L610 579L612 578"></path>
    <path class="date-06-2013" stroke-linejoin="round" stroke-linecap="round" fill="none" d="M401 427L399 419L396 420L394 418L396 414L393 411L389 413L383 413L381 417L373 417L369 421L369 419L363 419L362 411L364 403L360 402L360 404L358 402L354 402L353 399L348 394L350 392L355 393L355 397L358 398L362 398L365 392L370 390L372 390L375 393L376 392L378 394L382 394L383 395L381 395L378 398L375 397L376 406L379 403L387 401L388 402L393 399L394 400L399 393L403 403L398 406L398 419L401 427"></path>
    <path class="date-06-2013" stroke-linejoin="round" stroke-linecap="round" fill="none" d="M368 352L368 344L362 336L358 336L355 333L355 329L355 333L358 336L361 335L363 337L360 336L359 339L363 337L360 336L359 340L362 337L363 338L363 336L361 336L359 338L360 339L362 337L363 338L363 336L361 336L359 338L360 339L362 337L363 338L363 336L361 336L359 338L360 339L363 338L362 336L360 336L359 339L363 337L360 336L359 339L363 338"></path>
    <path class="date-06-2013" stroke-linejoin="round" stroke-linecap="round" fill="none" d="M369 351L368 344L365 341L365 339L359 335L368 323L367 326L364 327L364 329L359 334L359 340L363 338L363 336L361 336L359 340L363 338L362 337L359 340L359 338L363 336L368 343L369 352L368 345L368 351"></path>
    <path class="date-07-2013" stroke-linejoin="round" stroke-linecap="round" fill="none" d="M300 389L301 388L299 385L294 386L298 388L298 390L305 387L310 394L316 396L313 395L315 393L316 388L323 381L325 381L324 378L319 375L302 378L296 376L291 379L294 376L294 372L299 369L297 367L296 356L300 354L305 355L303 361L297 365L297 367L300 370L299 379L303 385L302 387"></path>
    <path class="date-07-2013" stroke-linejoin="round" stroke-linecap="round" fill="none" d="M186 230L192 226L195 231L200 232L200 234L196 236L198 236L197 235L198 236L201 231L201 226L196 221L194 221L194 219L191 216L186 213"></path>
    <path class="date-07-2013" stroke-linejoin="round" stroke-linecap="round" fill="none" d="M389 388L388 390L386 389L380 393L376 393L375 396L373 391L364 392L361 389L358 390L353 387L347 387L348 380L345 377L340 376L338 374L324 376L318 375L312 377L297 376L291 379L295 376L312 377L314 375L315 376L337 374L347 378L348 387L351 386L356 389L362 389L365 392L371 390L374 391L375 394L386 389"></path>
    <path class="date-07-2013" stroke-linejoin="round" stroke-linecap="round" fill="none" d="M616 582L612 578L609 577L607 579L602 575L594 577L593 574L599 568L604 567L606 561L610 561L621 568L618 571L619 574L617 576L619 580"></path>
    <path class="date-07-2013" stroke-linejoin="round" stroke-linecap="round" fill="none" d="M384 370L383 365L379 365L370 354L370 352L368 352L368 344L365 341L365 339L362 336L358 336L355 333L354 328L346 326L353 328L354 327L355 334L357 334L357 336L359 336L360 339L364 337L364 339L368 343L368 351L371 354L371 356L373 356L374 359L380 365L381 364L384 369L388 367L389 364L391 366L386 377L386 389L383 392L382 391L380 393L376 393L372 389L369 382L374 375L379 374L379 372L382 371L385 372L385 370"></path>
    <path class="date-07-2013" stroke-linejoin="round" stroke-linecap="round" fill="none" d="M317 331L317 337L313 341L294 342L291 341L291 339L286 338L284 336L278 337L278 335L282 333L286 335L289 332L289 330L303 317L289 330L289 332L286 335L286 333L278 335L278 337L272 343L273 346L271 352L272 353L277 350L281 352L286 351L293 343L296 342L315 340L317 337L317 332"></path>
    <path class="date-07-2013" stroke-linejoin="round" stroke-linecap="round" fill="none" d="M624 581L632 576L624 569L616 566L608 558L608 556L595 550L595 552L597 552L598 559L594 564L588 567L589 572L593 576L591 579L595 577L596 578L605 571L609 570L611 574L612 573L612 577L616 582"></path>
    <path class="date-07-2013" stroke-linejoin="round" stroke-linecap="round" fill="none" d="M616 583L612 578L606 579L605 576L602 575L594 578L591 574L592 573L592 575L599 568L604 567L605 562L611 560L608 557L609 556L615 564L614 565L612 563L607 562L607 566L613 570L613 572L619 580"></path>
    <path class="date-07-2013" stroke-linejoin="round" stroke-linecap="round" fill="none" d="M401 427L399 419L396 420L398 416L394 408L379 411L370 408L367 403L361 403L357 401L354 402L351 397L345 395L333 393L316 396L310 394L306 390L306 388L303 387L305 387L310 394L315 396L337 393L348 397L352 397L354 401L367 403L370 408L374 408L379 411L384 409L394 409L399 416L396 419L399 420L399 424L401 427"></path>
    <path class="date-08-2013" stroke-linejoin="round" stroke-linecap="round" fill="none" d="M385 370L387 374L387 386L380 394L375 393L375 391L371 389L369 381L367 381L364 384L369 379L371 379L373 375L378 374L381 371L384 372L386 370L388 372L387 375L391 367L394 368L394 370L398 374L399 379L397 379L396 382L392 384L391 383L389 387L387 385L387 375L385 373L385 370"></path>
    <path class="date-08-2013" stroke-linejoin="round" stroke-linecap="round" fill="none" d="M383 368L381 364L379 372L375 374L369 382L371 388L374 391L371 390L365 392L354 387L348 387L348 379L346 377L337 374L322 375L321 370L324 367L322 365L321 366L318 363L313 364L307 358L307 356L303 354L299 354L297 356L295 354L291 354L289 352L289 348L293 343L294 344L297 341L303 342L315 340L317 336L317 330L317 338L314 343L314 349L311 350L306 355L307 358L313 364L318 363L322 367L322 365L324 369L326 365L325 368L327 370L333 368L334 371L335 370L340 373L345 372L353 378L358 378L358 382L362 384L368 380L370 382L371 381L371 379L381 369L380 364L382 364L384 368"></path>
    <path class="date-08-2013" stroke-linejoin="round" stroke-linecap="round" fill="none" d="M624 582L632 576L630 574L631 573L637 577L633 587L633 593L635 595L635 603L639 612L639 618L636 621L636 623L624 625L620 629L614 629L614 627L621 628L625 624L632 623L636 620L638 614L634 608L635 604L633 594L626 587L623 588L623 586L621 585"></path>
    <path class="date-08-2013" stroke-linejoin="round" stroke-linecap="round" fill="none" d="M389 391L389 393L386 394L386 386L380 386L378 390L378 392L380 392L378 394L382 394L383 395L380 396L385 397L384 398L386 400L391 399L399 391L399 389L394 390L392 392L391 391L399 387L403 383L400 382L398 386L396 382L394 386L393 385L395 383L394 382L392 384L393 385L391 383L391 377L388 382L388 384L391 385L389 391"></path>
    <path class="date-08-2013" stroke-linejoin="round" stroke-linecap="round" fill="none" d="M625 584L632 579L634 582L631 591L634 596L634 607L638 615L635 622L624 624L620 628L614 628L607 635L609 647L605 655L605 669L607 674L611 678L613 676L618 681L620 681L619 682L613 676L611 678L609 677L605 669L605 656L609 648L607 634L614 628L611 619L614 617L613 616L615 611L619 609L618 606L622 604L620 596L615 588L615 586L618 585"></path>
    <path class="date-08-2013" stroke-linejoin="round" stroke-linecap="round" fill="none" d="M388 390L389 393L386 394L386 387L382 385L378 389L378 393L383 394L380 397L385 397L384 398L388 400L394 395L395 396L399 390L391 390L396 389L403 382L400 381L400 383L397 386L397 382L395 382L394 387L393 384L395 382L392 384L393 385L391 383L391 377L388 382L388 384L390 384L391 387L390 386L390 390L388 390"></path>
    <path class="date-08-2013" stroke-linejoin="round" stroke-linecap="round" fill="none" d="M249 728L247 730L254 735L253 738L255 740L244 751L237 750L226 755L223 754L222 757L219 758L219 754L221 752L219 752L221 750L214 749L221 748L218 747L220 745L224 749L224 751L226 749L228 751L231 748L233 748L234 751L236 751L236 749L246 741L253 742L255 740L253 738L254 735L250 733L247 729"></path>
    <path class="date-08-2013" stroke-linejoin="round" stroke-linecap="round" fill="none" d="M624 581L631 576L630 573L609 561L607 561L602 568L593 573L594 578L601 577L601 579L605 583L612 581L613 584L616 582L617 583"></path>
    <path class="date-08-2013" stroke-linejoin="round" stroke-linecap="round" fill="none" d="M368 352L368 344L365 341L365 339L362 336L358 336L355 333L354 328L347 326L353 328L357 336L363 336L361 336L359 339L361 339L363 337L362 336L359 339L360 340L363 337L362 336L359 339L360 340L363 337L362 336L359 339L360 340L363 337L362 336L359 339L360 340L363 337L362 336L359 339L361 339L363 337L362 336L359 339L360 340L363 337L365 341L368 342L368 351"></path>
    <path class="date-08-2013" stroke-linejoin="round" stroke-linecap="round" fill="none" d="M301 388L303 386L300 383L301 382L299 378L297 376L292 379L294 371L297 370L297 368L293 366L278 367L276 365L276 357L271 352L273 347L273 345L270 342L271 337L268 336L265 339L256 340L254 336L268 329L269 330L273 326L277 324L278 325L281 322L289 322L295 324L304 317L316 326L317 337L314 342L314 350L311 349L297 365L297 367L301 369L303 377L305 379L305 385L302 387"></path>
    <path class="date-09-2013" stroke-linejoin="round" stroke-linecap="round" fill="none" d="M624 581L631 576L630 573L626 572L622 568L616 566L609 561L607 561L602 568L593 573L593 577L596 578L605 571L607 573L609 571L611 573L613 571L618 577L619 581"></path>
    <path class="date-09-2013" stroke-linejoin="round" stroke-linecap="round" fill="none" d="M386 389L380 393L376 393L375 396L382 393L382 391L380 393L376 393L375 396L382 392L375 393L375 395L376 396L382 392L378 392L379 387L377 389L378 392L375 393L376 396L382 392L378 392L375 395L376 396L386 389L388 391L393 390L390 391L388 389L389 388L387 386L387 382"></path>
    <path class="date-09-2013" stroke-linejoin="round" stroke-linecap="round" fill="none" d="M624 581L632 575L630 575L630 573L628 573L623 568L617 566L608 558L608 556L595 550L598 556L598 560L588 567L589 572L592 575L595 571L602 568L607 561L609 561L614 564L613 565L608 562L608 568L611 567L619 581"></path>
    <path class="date-09-2013" stroke-linejoin="round" stroke-linecap="round" fill="none" d="M401 427L399 419L396 420L396 418L399 415L397 415L396 410L394 408L383 409L381 411L376 410L374 408L375 397L374 400L362 403L358 401L353 402L347 396L345 396L348 395L352 397L354 401L358 401L361 403L368 402L375 397L375 393L380 394L382 392L379 393L378 388L378 392L383 393L382 394L384 396L381 397L384 396L388 400L391 399L399 391L399 389L393 385L395 382L392 383L392 385L391 384L389 390L386 389L375 397L376 398L374 408L379 411L385 409L395 409L397 415L399 415L396 418L396 420L399 419L399 423L401 426"></path>
    <path class="date-09-2013" stroke-linejoin="round" stroke-linecap="round" fill="none" d="M317 331L314 323L309 322L309 320L303 318L295 324L282 322L262 333L257 334L254 337L252 333L253 338L247 343L245 343L254 350L262 350L269 346L275 339L277 339L281 333L285 333L287 335L289 333L289 329L303 318L314 323L317 330"></path>
    <path class="date-09-2013" stroke-linejoin="round" stroke-linecap="round" fill="none" d="M616 582L612 578L607 579L603 574L594 578L589 572L588 565L577 564L573 567L568 568L563 574L560 575L551 573L551 577L543 579L537 576L530 577L520 586L518 586L515 589L516 590L509 595L508 598L504 600L496 609L508 598L508 596L512 592L516 590L516 588L529 577L538 576L538 578L541 579L549 577L550 578L552 576L551 573L558 575L563 574L566 571L566 569L574 567L574 565L590 565L596 563L598 558L597 552L597 554L595 550L607 556L610 559L610 561L615 565L621 567L628 573L630 573L630 575L623 580"></path>
    <path class="date-09-2013" stroke-linejoin="round" stroke-linecap="round" fill="none" d="M574 566L568 568L566 572L563 574L557 574L563 574L566 571L566 569L574 567L574 565L579 564L588 565L589 572L592 575L599 568L604 567L606 571L612 568L614 574L618 578"></path>
    <path class="date-09-2013" stroke-linejoin="round" stroke-linecap="round" fill="none" d="M444 397L445 402L441 408L442 418L440 420L440 426L437 427L430 422L429 423L429 429L424 436L420 450L423 453L437 449L438 444L440 442L442 434L438 428L442 422L441 408L445 402L444 398"></path>
    <path class="date-09-2013" stroke-linejoin="round" stroke-linecap="round" fill="none" d="M317 330L314 323L304 318L299 320L289 330L289 332L286 335L282 333L278 336L277 339L263 350L256 351L252 349L250 345L247 346L245 344L257 334L271 329L282 322L296 324L302 318L306 318L311 323L313 323L316 326L317 330"></path>
    <path class="date-09-2013" stroke-linejoin="round" stroke-linecap="round" fill="none" d="M624 581L632 575L630 575L629 572L617 566L612 561L606 561L601 568L604 567L606 571L611 568L619 581"></path>
    <path class="date-09-2013" stroke-linejoin="round" stroke-linecap="round" fill="none" d="M443 397L443 388L441 386L437 388L437 390L438 393L442 395L442 397L443 388L441 386L437 388L438 393L442 395L442 397L443 388L441 386L437 388L438 393L442 395L442 397L443 388L441 386L437 388L438 393L442 395L437 391L437 389L440 386L442 386L443 388L442 396"></path>
    <path class="date-10-2013" stroke-linejoin="round" stroke-linecap="round" fill="none" d="M546 764L551 761L561 765L565 765L567 773L562 774L558 768L552 768L548 770L547 769L549 767L546 765"></path>
    <path class="date-10-2013" stroke-linejoin="round" stroke-linecap="round" fill="none" d="M317 332L317 338L315 340L307 342L300 341L294 343L289 348L289 354L296 355L298 367L298 369L294 371L292 379L294 371L298 368L296 356L294 354L289 353L289 347L296 342L313 341L317 337L317 332"></path>
    <path class="date-10-2013" stroke-linejoin="round" stroke-linecap="round" fill="none" d="M384 370L386 374L385 377L387 381L387 387L381 393L378 392L379 387L381 387L379 387L379 391L378 390L379 391L375 395L383 395L384 396L381 397L387 401L390 400L399 391L399 389L397 388L391 391L386 389L387 374L385 371"></path>
    <path class="date-10-2013" stroke-linejoin="round" stroke-linecap="round" fill="none" d="M346 396L333 393L320 396L313 395L309 397L310 398L315 393L316 387L325 381L321 373L321 369L329 369L331 367L338 372L346 372L349 375L358 378L358 384L348 388L346 390L345 395"></path>
    <path class="date-10-2013" stroke-linejoin="round" stroke-linecap="round" fill="none" d="M624 581L632 576L627 571L614 564L608 558L608 556L595 550L594 553L598 557L598 559L594 564L588 567L589 572L593 576L593 578L602 575L610 569L613 570L617 577"></path>
    <path class="date-10-2013" stroke-linejoin="round" stroke-linecap="round" fill="none" d="M401 427L403 427L404 436L403 438L394 439L393 442L393 436L393 446L391 444L393 440L392 437L394 437L393 446L391 444L393 441L392 436L394 438L393 447L393 445L391 444L393 436L393 446L391 444L393 436L393 447L391 444L393 436L394 442L393 445L391 445L392 442L394 442L394 440L402 444L405 443L403 437L403 429L401 428"></path>
    <path class="date-10-2013" stroke-linejoin="round" stroke-linecap="round" fill="none" d="M370 353L377 361L381 369L380 364L383 365L385 371L381 371L379 375L381 375L381 371L387 375L387 387L383 391L383 387L379 387L377 389L378 394L382 394L383 391L389 391L391 399L399 391L399 389L393 391L389 391L386 389L387 375L385 373L383 365L378 364L377 361L370 354"></path>
    <path class="date-10-2013" stroke-linejoin="round" stroke-linecap="round" fill="none" d="M369 351L368 344L365 341L365 339L359 335L360 332L371 320L378 321L381 318L384 318L381 312L379 312L379 310L369 299L384 317L384 319L381 318L378 321L371 321L359 334L359 338L360 339L364 337L364 339L368 343L369 351"></path>
    <path class="date-10-2013" stroke-linejoin="round" stroke-linecap="round" fill="none" d="M389 389L391 399L393 395L394 396L399 391L399 389L393 385L394 382L393 385L391 383L389 391"></path>
    <path class="date-11-2013" stroke-linejoin="round" stroke-linecap="round" fill="none" d="M623 581L632 576L628 572L612 563L608 557L613 564L610 561L606 561L602 568L605 567L604 569L606 571L612 568L613 573L619 580"></path>
    <path class="date-11-2013" stroke-linejoin="round" stroke-linecap="round" fill="none" d="M317 331L314 324L310 323L305 318L303 318L299 320L297 324L295 324L289 329L289 333L287 335L285 333L281 333L277 339L263 350L258 349L256 351L257 350L252 349L250 345L245 344L252 338L254 338L255 335L263 333L267 329L271 329L281 322L293 322L295 324L304 317L307 320L309 320L309 322L314 323L317 330"></path>
    <path class="date-11-2013" stroke-linejoin="round" stroke-linecap="round" fill="none" d="M393 366L390 369L390 367L394 367L395 370L392 383L398 389L401 390L403 388L404 389L402 389L402 387L406 381L409 384L411 384L409 388L405 390L404 393L405 392L403 392L403 394L399 390L392 393L389 392L386 379L387 372L385 368L388 367L389 364L392 365"></path>
    <path class="date-11-2013" stroke-linejoin="round" stroke-linecap="round" fill="none" d="M389 388L389 386L389 390L385 390L378 393L382 393L386 389L386 387L387 388L384 391L375 394L375 396L379 394L377 396L379 398L383 398L387 404L384 399L379 398L377 396L379 398L383 398L387 404L384 399L379 398L377 396L384 390L388 389"></path>
    <path class="date-11-2013" stroke-linejoin="round" stroke-linecap="round" fill="none" d="M624 559L623 560L621 557L615 560L612 557L605 556L596 550L595 551L597 553L596 544L598 536L611 541L609 543L609 549L615 558L621 556"></path>
    <path class="date-11-2013" stroke-linejoin="round" stroke-linecap="round" fill="none" d="M624 581L631 577L631 574L619 566L614 565L610 561L606 562L602 568L595 571L593 574L593 578L596 578L611 568L619 580"></path>
    <path class="date-11-2013" stroke-linejoin="round" stroke-linecap="round" fill="none" d="M303 318L299 320L297 324L281 322L278 325L277 324L273 326L269 330L268 329L262 333L257 334L245 344L250 345L252 349L263 350L266 347L268 347L278 337L279 334L285 333L287 335L289 329L302 318"></path>
    <path class="date-11-2013" stroke-linejoin="round" stroke-linecap="round" fill="none" d="M623 557L617 561L619 567L625 569L637 577L632 592L631 589L636 578L632 574L630 574L619 566L618 567L615 564L618 563L617 562L622 558"></path>
    <path class="date-11-2013" stroke-linejoin="round" stroke-linecap="round" fill="none" d="M392 366L389 367L384 372L381 371L378 374L376 374L371 379L370 382L367 381L363 384L358 383L354 387L365 392L377 392L378 393L376 393L376 395L372 399L371 398L372 399L378 395L381 398L385 398L387 400L388 399L385 396L397 388L392 383L395 370L392 366L393 367L391 367L391 369L390 368L392 366"></path>
    <path class="date-12-2013" stroke-linejoin="round" stroke-linecap="round" fill="none" d="M624 581L631 576L630 573L616 566L608 558L608 556L596 550L595 551L598 557L597 562L591 564L588 567L589 572L593 576L593 578L602 575L611 568L619 580"></path>
    <path class="date-12-2013" stroke-linejoin="round" stroke-linecap="round" fill="none" d="M621 556L614 560L611 556L604 555L595 550L599 558L594 564L588 566L588 570L591 576L595 576L618 563L617 562L622 558"></path>
    <path class="date-12-2013" stroke-linejoin="round" stroke-linecap="round" fill="none" d="M625 581L633 575L626 572L617 565L616 566L608 558L608 556L595 550L599 558L594 564L588 567L589 572L592 575L595 571L602 568L607 561L609 561L614 564L608 562L607 565L612 568L614 574L619 581"></path>
    <path class="date-12-2013" stroke-linejoin="round" stroke-linecap="round" fill="none" d="M317 331L315 325L306 318L304 318L299 320L289 330L289 332L286 335L284 333L279 334L277 339L265 349L254 350L245 343L254 338L255 335L262 333L265 330L269 330L273 326L277 324L278 325L281 322L289 322L295 324L303 318L305 318L309 322L314 323L317 330"></path>
    <path class="date-12-2013" stroke-linejoin="round" stroke-linecap="round" fill="none" d="M616 582L612 578L606 578L603 575L594 578L593 573L602 568L605 565L605 563L609 561L616 566L613 571L619 581"></path>
    <path class="date-12-2013" stroke-linejoin="round" stroke-linecap="round" fill="none" d="M616 582L613 576L609 577L606 580L604 575L599 578L594 578L592 576L595 571L602 568L605 565L605 563L609 561L617 567L627 571L632 576L621 583"></path>
    <path class="date-12-2013" stroke-linejoin="round" stroke-linecap="round" fill="none" d="M616 582L613 578L610 579L610 577L606 579L604 575L594 578L593 573L602 568L605 565L605 563L609 561L614 564L608 562L607 565L612 568L614 574L619 580"></path>
    <path class="date-12-2013" stroke-linejoin="round" stroke-linecap="round" fill="none" d="M624 581L632 575L630 575L629 572L620 568L617 565L612 564L613 563L608 556L596 550L594 552L593 559L588 565L589 572L592 575L594 573L595 574L595 572L599 568L602 569L604 567L606 571L608 571L611 568L613 570L614 575L617 576L619 580"></path>
  </g>
</svg>
